<svg xmlns="http://www.w3.org/2000/svg" width="80" height="17" viewBox="0 0 80 17">
    <path fill="#FF2C55" fill-rule="evenodd" d="M9.835 7.28a14.56 14.56 0 0 1-.512-1.718c-.071.272-.139.544-.203.816-.064.272-.146.572-.245.902L6.1 16.105H4.224L.214 1.568h2.538l1.877 7.28c.327 1.259.562 2.275.704 3.048a50.066 50.066 0 0 1 .853-3.006l2.262-7.322h1.899l2.261 7.322c.2.644.37 1.231.512 1.76.142.53.256.996.341 1.397.057-.401.139-.866.246-1.396.106-.53.245-1.117.416-1.76L16 1.567h2.581l-4.01 14.537h-1.878L9.835 7.28zm9.845 1.202c.263-.73.626-1.342 1.088-1.836A4.5 4.5 0 0 1 22.4 5.53a5.402 5.402 0 0 1 2.027-.375c.64 0 1.184.078 1.632.236.448.157.814.372 1.098.644.285.272.495.594.63.966.135.373.202.773.202 1.203 0 .515-.142 1.006-.426 1.47-.285.466-.694.874-1.227 1.225-.533.35-1.177.63-1.93.837-.754.208-1.6.319-2.54.333.043.33.11.64.203.934.093.294.228.551.406.773.177.222.409.398.693.526.284.13.64.194 1.067.194.313 0 .647-.036 1.002-.108a8.14 8.14 0 0 0 .982-.257c.355-.115.704-.244 1.045-.387l.64 1.525a10.221 10.221 0 0 1-2.475.837c-.483.1-.995.15-1.536.15-.825 0-1.529-.125-2.112-.375a3.653 3.653 0 0 1-1.429-1.063c-.37-.458-.64-1.01-.81-1.654a8.383 8.383 0 0 1-.257-2.147c0-.96.132-1.804.395-2.534zm3.392-1.32a2.46 2.46 0 0 0-.736.858c-.185.351-.316.745-.395 1.181a9.14 9.14 0 0 0-.138 1.321c.682-.029 1.262-.118 1.738-.268.477-.15.864-.337 1.163-.559.299-.222.516-.461.65-.719.136-.258.203-.515.203-.773 0-.415-.12-.748-.362-.999-.242-.25-.562-.375-.96-.375-.47 0-.857.11-1.163.332zm7.05-5.594c.1 0 .328-.004.683-.011.356-.007.754-.01 1.195-.01.44 0 .882-.004 1.323-.012.44-.007.803-.01 1.088-.01 1.65 0 2.905.329 3.765.987.86.659 1.29 1.59 1.29 2.792 0 .701-.191 1.331-.575 1.89-.384.558-.918 1.009-1.6 1.353.853.329 1.504.794 1.952 1.395.448.602.672 1.296.672 2.083 0 1.231-.463 2.223-1.387 2.974-.924.752-2.325 1.128-4.203 1.128h-1.237c-.44 0-.86-.004-1.259-.011-.398-.007-.75-.01-1.056-.01h-.65V1.567zm2.54 12.712h1.834c.967 0 1.66-.218 2.08-.655.42-.437.63-.984.63-1.643 0-.3-.047-.594-.14-.88a1.93 1.93 0 0 0-.48-.773c-.227-.23-.53-.412-.906-.548-.377-.136-.85-.204-1.419-.204h-.906c-.263 0-.495.007-.694.022v4.681zm0-6.528h1.642c.896 0 1.536-.208 1.92-.623.384-.415.576-.923.576-1.524 0-.272-.043-.544-.128-.816a1.838 1.838 0 0 0-.437-.73c-.207-.215-.484-.387-.832-.516-.349-.129-.786-.193-1.312-.193h-.822c-.234 0-.437.007-.608.021v4.381zm9.877 7.763c-.384-.451-.576-1.027-.576-1.729V.966l2.432-.45V13.55c0 .33.064.558.192.687s.313.193.554.193c.143 0 .281-.007.416-.021.135-.014.26-.036.374-.065a5.93 5.93 0 0 0 .341-.085l.299 1.546a5.302 5.302 0 0 1-.619.193c-.2.057-.434.104-.704.14-.27.035-.576.053-.917.053-.811 0-1.408-.225-1.792-.676zm5.493-7.033c.263-.73.626-1.342 1.088-1.836a4.5 4.5 0 0 1 1.632-1.117 5.402 5.402 0 0 1 2.027-.375c.64 0 1.184.078 1.632.236.448.157.814.372 1.098.644.285.272.495.594.63.966.135.373.202.773.202 1.203 0 .515-.142 1.006-.426 1.47-.285.466-.694.874-1.227 1.225-.533.35-1.177.63-1.93.837-.754.208-1.6.319-2.54.333.043.33.11.64.203.934.093.294.228.551.406.773.177.222.409.398.693.526.284.13.64.194 1.067.194.313 0 .647-.036 1.002-.108a8.14 8.14 0 0 0 .982-.257c.355-.115.704-.244 1.045-.387l.64 1.525a10.221 10.221 0 0 1-2.475.837c-.483.1-.995.15-1.536.15-.825 0-1.529-.125-2.112-.375a3.653 3.653 0 0 1-1.429-1.063c-.37-.458-.64-1.01-.81-1.654a8.383 8.383 0 0 1-.257-2.147c0-.96.132-1.804.395-2.534zm3.392-1.32a2.46 2.46 0 0 0-.736.858c-.185.351-.316.745-.395 1.181a9.14 9.14 0 0 0-.138 1.321c.682-.029 1.262-.118 1.738-.268.477-.15.864-.337 1.163-.559.299-.222.516-.461.65-.719.136-.258.203-.515.203-.773 0-.415-.12-.748-.362-.999-.242-.25-.562-.375-.96-.375-.47 0-.857.11-1.163.332zm13.557 8.943V9.17c0-.601-.106-1.084-.32-1.45-.213-.364-.576-.547-1.088-.547-.327 0-.643.083-.949.247-.306.165-.58.405-.821.72a3.866 3.866 0 0 0-.587 1.148 4.8 4.8 0 0 0-.224 1.514v5.304H58.56v-5.411c0-.86-.057-1.578-.17-2.158a10.059 10.059 0 0 0-.363-1.407 4.406 4.406 0 0 0-.512-1.009l1.92-.773c.142.157.284.35.426.58a5.756 5.756 0 0 1 .619 1.74c.37-.86.903-1.479 1.6-1.858.697-.38 1.43-.57 2.197-.57 1.095 0 1.888.333 2.379 1 .49.665.736 1.563.736 2.694v7.172h-2.41zm12.8.172c-.028-.014-.092-.082-.192-.204a3.62 3.62 0 0 1-.33-.505 5.174 5.174 0 0 1-.352-.805 4.232 4.232 0 0 1-.214-1.127c-.241.859-.629 1.507-1.162 1.943-.534.437-1.255.655-2.166.655-.668 0-1.248-.125-1.738-.376a3.34 3.34 0 0 1-1.227-1.073c-.327-.466-.569-1.028-.725-1.686a9.485 9.485 0 0 1-.235-2.19c0-.816.124-1.572.373-2.266A5.378 5.378 0 0 1 70.86 6.85a4.83 4.83 0 0 1 1.61-1.18 4.915 4.915 0 0 1 2.07-.43c.256 0 .53.014.821.043.292.028.58.064.864.107V.537l2.432.43v9.963c0 .86.05 1.571.15 2.137.099.565.213 1.023.34 1.374.129.35.246.605.353.762.106.158.167.258.181.301l-1.899.773zm-3.029-2.147c.299-.244.558-.562.779-.956.22-.394.39-.84.512-1.342.12-.501.181-1.016.181-1.546V7.194a7.554 7.554 0 0 0-.64-.15 3.93 3.93 0 0 0-.768-.087c-.54 0-.985.094-1.333.28-.349.186-.63.443-.843.773a3.24 3.24 0 0 0-.448 1.18c-.085.459-.128.96-.128 1.504 0 .5.014.98.043 1.439.028.458.103.862.224 1.213.12.35.295.63.522.837.228.208.534.312.918.312.355 0 .682-.122.981-.365z"/>
</svg>
